<svg xmlns="http://www.w3.org/2000/svg" width="512" height="512" viewBox="0 0 512 512">
  <defs>
    <linearGradient id="bg" x1="96" y1="56" x2="430" y2="456" gradientUnits="userSpaceOnUse">
      <stop offset="0" stop-color="#0f766e"/>
      <stop offset="0.52" stop-color="#0b5fa5"/>
      <stop offset="1" stop-color="#18213d"/>
    </linearGradient>
    <linearGradient id="paper" x1="156" y1="112" x2="344" y2="350" gradientUnits="userSpaceOnUse">
      <stop offset="0" stop-color="#ffffff"/>
      <stop offset="1" stop-color="#dceafe"/>
    </linearGradient>
    <filter id="shadow" x="-20%" y="-20%" width="140%" height="150%">
      <feDropShadow dx="0" dy="18" stdDeviation="18" flood-color="#06111f" flood-opacity="0.35"/>
    </filter>
  </defs>
  <rect x="32" y="32" width="448" height="448" rx="112" fill="url(#bg)"/>
  <path d="M126 352h260c18 0 32 14 32 32v22H94v-22c0-18 14-32 32-32z" fill="#071827" opacity="0.42"/>
  <g filter="url(#shadow)">
    <rect x="144" y="116" width="224" height="256" rx="28" fill="url(#paper)"/>
    <rect x="178" y="164" width="156" height="18" rx="9" fill="#0f766e" opacity="0.28"/>
    <rect x="178" y="208" width="112" height="14" rx="7" fill="#10213a" opacity="0.22"/>
    <rect x="178" y="240" width="134" height="14" rx="7" fill="#10213a" opacity="0.18"/>
    <path d="M206 304l34 34 76-88" fill="none" stroke="#0f766e" stroke-width="28" stroke-linecap="round" stroke-linejoin="round"/>
  </g>
  <path d="M392 186l42 24-42 24-42-24 42-24z" fill="#5eead4" opacity="0.95"/>
  <path d="M392 234v52" stroke="#5eead4" stroke-width="12" stroke-linecap="round"/>
</svg>
