<svg xmlns="http://www.w3.org/2000/svg" width="1600" height="1000" viewBox="0 0 1600 1000">
  <defs>
    <linearGradient id="base" x1="0" y1="0" x2="1600" y2="1000" gradientUnits="userSpaceOnUse">
      <stop offset="0" stop-color="#111827"/>
      <stop offset="0.46" stop-color="#17223a"/>
      <stop offset="1" stop-color="#0f3f4a"/>
    </linearGradient>
    <linearGradient id="panel" x1="1040" y1="250" x2="1390" y2="850" gradientUnits="userSpaceOnUse">
      <stop offset="0" stop-color="#f8fbff" stop-opacity="0.28"/>
      <stop offset="1" stop-color="#5eead4" stop-opacity="0.08"/>
    </linearGradient>
  </defs>
  <rect width="1600" height="1000" fill="url(#base)"/>
  <path d="M0 708c230-86 431-108 603-65 180 45 330 153 519 183 151 24 309 2 478-65v239H0V708z" fill="#06111f" opacity="0.42"/>
  <path d="M1000 286h346c38 0 68 30 68 68v410c0 38-30 68-68 68h-346c-38 0-68-30-68-68V354c0-38 30-68 68-68z" fill="url(#panel)" stroke="#7dd3fc" stroke-opacity="0.2" stroke-width="2"/>
  <rect x="1005" y="374" width="210" height="22" rx="11" fill="#e0f2fe" opacity="0.3"/>
  <rect x="1005" y="428" width="296" height="18" rx="9" fill="#e0f2fe" opacity="0.18"/>
  <rect x="1005" y="470" width="264" height="18" rx="9" fill="#e0f2fe" opacity="0.14"/>
  <path d="M1060 620l62 62 142-164" fill="none" stroke="#5eead4" stroke-width="32" stroke-linecap="round" stroke-linejoin="round" opacity="0.95"/>
  <rect x="1192" y="734" width="170" height="22" rx="11" fill="#ffffff" opacity="0.24"/>
  <path d="M750 178h146v654H750V178z" fill="#ffffff" opacity="0.04"/>
  <path d="M800 220h46v612h-46V220z" fill="#5eead4" opacity="0.12"/>
  <path d="M700 832h786" stroke="#ffffff" stroke-opacity="0.14" stroke-width="2"/>
  <circle cx="1340" cy="220" r="150" fill="#5eead4" opacity="0.08"/>
  <circle cx="1450" cy="386" r="96" fill="#38bdf8" opacity="0.07"/>
</svg>
